<?xml version="1.0" encoding="UTF-8"?>
<svg width="260px" height="260px" viewBox="0 0 260 260" version="1.1" xmlns="http://www.w3.org/2000/svg" xmlns:xlink="http://www.w3.org/1999/xlink">
    <!-- Generator: Sketch 46.2 (44496) - http://www.bohemiancoding.com/sketch -->
    <title>Artboard</title>
    <desc>Created with Sketch.</desc>
    <defs>
        <polygon id="path-1" points="0.865919429 173.933077 115.743287 173.933077 115.743287 0.803297698 0.865919429 0.803297698"></polygon>
    </defs>
    <g id="Page-1" stroke="none" stroke-width="1" fill="none" fill-rule="evenodd">
        <g id="Artboard">
            <g id="wapuu-js-learning" transform="translate(48.000000, 14.000000)">
                <g id="Group-4" transform="translate(67.000000, 0.000000)">
                    <path d="M2.39536585,22.3852273 L44.0601463,2.03522727" id="Fill-1" fill="#969894"></path>
                    <path d="M2.3964878,24.0897727 C1.77156098,24.0897727 1.17019512,23.7340909 0.879609756,23.125 C0.475707317,22.2772727 0.826878049,21.2579545 1.66497561,20.8488636 L43.3297561,0.5 C44.1644878,0.0909090909 45.172,0.446590909 45.5770244,1.29431818 C45.9798049,2.14318182 45.6286341,3.16136364 44.7905366,3.57045455 L3.12687805,23.9204545 C2.89126829,24.0352273 2.64219512,24.0897727 2.3964878,24.0897727" id="Fill-3" fill="#0A0B09"></path>
                </g>
                <polyline id="Fill-5" fill="#1A6193" points="53.5267129 2 17 41.8901408 97.4786168 51 140 12.8788282 53.5267129 2"></polyline>
                <path d="M21.1558745,40.7980319 L97.9969169,49.567742 L137.45372,13.9038068 L55.0730137,3.45488578 L21.1558745,40.7980319 Z M98.5719371,53 C98.5062852,53 98.4428971,52.9966438 98.3772452,52.9899314 L17.5031376,43.7604241 C16.8726528,43.6877068 16.3349862,43.2748961 16.1097322,42.6864451 C15.8856101,42.1002315 16.0101224,41.4390631 16.434596,40.9714348 L53.1408098,0.557379836 C53.5143466,0.146806599 54.0633324,-0.0590393828 54.6202418,0.014796676 L141.518479,11.0353878 C142.173866,11.1181737 142.72172,11.5701399 142.92094,12.1932715 C143.120159,12.8164031 142.935655,13.4977085 142.448925,13.9384874 L99.7185818,52.5603398 C99.4027735,52.8456155 98.9941469,53 98.5719371,53 L98.5719371,53 Z" id="Fill-6" fill="#0A0B09"></path>
                <path d="M34.1977414,122.147911 C37.4970617,131.071501 52.5331583,105.205408 48.2330364,98.5614212 C43.9329146,91.9174341 36.3059589,83.9511434 32.8266548,81.7118488 C29.3462042,79.4725542 19.0068817,82.3959533 19.0000033,92.1973459 C18.9942713,100.874613 26.4607319,101.220584 34.1977414,122.147911" id="Fill-7" fill="#F9CE22"></path>
                <path d="M29.4706132,82.3322112 C28.2498015,82.3322112 26.723504,82.6655272 25.2696179,83.4343763 C23.4502804,84.3954376 20.3988168,86.7575374 20.3942911,91.7761662 C20.3920282,95.3182049 21.7746342,97.1714422 24.2864063,100.536823 C27.2043613,104.44551 31.2005679,109.799677 35.2929461,120.9291 C35.485289,121.451295 35.6742376,121.642396 35.7262833,121.66795 C36.0057462,121.739058 37.6440552,121.11909 40.3063073,117.34373 C44.9576113,110.748516 47.8337034,101.652321 46.1139315,98.9802373 C42.0170277,92.6161227 34.7204431,84.903189 31.4087509,82.7610778 C30.9833336,82.4866476 30.2976877,82.3322112 29.4706132,82.3322112 Z M35.7375976,125 C35.6142719,125 35.4909461,124.993334 35.3676204,124.982223 C34.5167859,124.89445 32.9599398,124.396698 32.1011853,122.062374 C28.1739958,111.382928 24.3452406,106.252083 21.5494799,102.506721 C18.9064621,98.9669047 16.9966102,96.4081484 17.0000045,91.7739441 C17.0045302,86.8441996 19.4314451,82.7344125 23.6607261,80.4989728 C27.0391727,78.7157319 30.992385,78.5001875 33.2767399,79.9778887 C36.939175,82.3477659 44.5978169,90.3873493 48.9832351,97.1992185 C51.9849158,101.86231 47.7296119,112.004007 44.1361939,117.683712 C41.9989248,121.061315 38.8411069,125 35.7375976,125 L35.7375976,125 Z" id="Fill-8" fill="#0A0B09"></path>
                <path d="M148.991215,119.880993 C149.564673,165.967184 121.986744,188 88.6742302,188 C55.3617167,188 18,187.52727 18,149.905524 C18,131.441097 30.1668001,125.706866 36.7198038,113.414756 C47.4439271,93.2985662 31.4514372,60.6723414 70.9602362,50.0912256 C103.116802,41.4792612 147.853329,28.2986866 148.991215,119.880993" id="Fill-9" fill="#F9CE22"></path>
                <path d="M103.884124,46.2910073 C93.4992611,46.2910073 82.4424102,49.2591831 72.1622291,52.0188507 L70.9375672,52.3466657 C45.5382146,59.1538458 44.229132,74.9246492 42.8435081,91.6209168 C42.1816504,99.5966349 41.4972805,107.843302 37.8480582,114.692853 C35.6306098,118.854097 32.8042072,122.27497 30.0701045,125.583226 C24.5715077,132.237649 19.3768251,138.521886 19.3768251,150.319883 C19.3768251,186.654948 55.9197004,186.654948 88.1605007,186.654948 C104.744089,186.654948 118.961648,181.188019 129.275597,170.845119 C140.883996,159.20211 146.880112,141.753205 146.614468,120.385016 C146.176607,85.0991812 139.374555,63.0162654 125.81998,52.8740689 C119.327471,48.0159389 111.800527,46.2910073 103.884124,46.2910073 Z M88.1605007,190 C56.0108747,190 16,190 16,150.319883 C16,137.327702 21.8250233,130.279678 27.4575675,123.463578 C30.0847374,120.283549 32.801956,116.995363 34.8606937,113.130714 C38.187992,106.886617 38.8149558,99.3379509 39.4779391,91.3466226 C40.832046,75.0305758 42.3662502,56.5380154 70.0562158,49.1186909 L71.2786265,48.7897608 C89.2095677,43.9751165 111.523628,37.9863591 127.855079,50.2047177 C142.298886,61.0125795 149.539924,83.9551735 149.991293,120.34376 C150.268193,142.626264 143.93552,160.903626 131.677645,173.195576 C120.715346,184.18853 105.667087,190 88.1605007,190 L88.1605007,190 Z" id="Fill-10" fill="#0A0B09"></path>
                <path d="M29.9614905,75.6919793 C15.6405347,79.7619377 14.1709843,73.1019049 17.4758203,72.3614078 C20.7806562,71.6209108 29.5935521,66.440762 34,62 L29.9614905,75.6919793" id="Fill-11" fill="#E8802C"></path>
                <g id="Group-16" transform="translate(12.000000, 59.000000)">
                    <mask id="mask-2" fill="white">
                        <use xlink:href="#path-1"></use>
                    </mask>
                    <g id="Clip-13"></g>
                    <path d="M5.72341748,14.6070769 C5.75607767,14.6070769 5.86081553,14.8056154 6.21106796,15.0398462 C6.8856699,15.4904615 9.60772816,16.7664615 16.9742913,14.8625 L19.2312233,7.34480769 C14.5202718,10.788 8.72928155,13.9032692 5.92838835,14.5200769 C5.70652427,14.5691538 5.71891262,14.6081923 5.72341748,14.6070769 Z M10.1719612,19.227 C6.35071845,19.227 4.44066019,18.0815 3.52392233,17.1635385 C2.52046602,16.1585769 2.13642718,14.8379615 2.49568932,13.6288846 C2.8504466,12.4354231 3.85953398,11.5475769 5.19409709,11.2531154 C8.10535922,10.6117692 16.8188738,5.69180769 21.2606602,1.29384615 C21.8057476,0.751769231 22.6526602,0.646923077 23.3193786,1.03953846 C23.9838447,1.43103846 24.2935534,2.21961538 24.0739417,2.95353846 L19.9452427,16.7095769 C19.7796893,17.2594615 19.3415922,17.6877692 18.7841165,17.8428077 C15.1734757,18.8522308 12.359068,19.227 10.1719612,19.227 L10.1719612,19.227 Z" id="Fill-12" fill="#0A0B09" mask="url(#mask-2)"></path>
                    <path d="M114.053903,117.361885 C107.67165,141.528923 82.5199223,164.579462 53.9884272,171.271769 C29.4448544,177.028269 2.18260194,158.259692 2.55875728,146.733308 C2.98108738,133.753577 19.4519612,134.464077 27.7104854,148.221231 C40.3623689,169.295308 83.6461359,154.541 99.7881553,125.169577 L114.053903,117.361885" id="Fill-14" fill="#E8802C" mask="url(#mask-2)"></path>
                    <path d="M11.5887379,139.104077 C10.8139029,139.104077 10.0784854,139.192192 9.39487379,139.366192 C6.20431068,140.180423 4.37646602,142.814962 4.24695146,146.786846 C4.1343301,150.271308 7.23930097,154.920231 12.5561553,159.223385 C22.1120777,166.960808 38.5074951,173.183538 53.5987573,169.643308 C79.8350291,163.489731 103.38866,143.322462 111.230485,120.818462 L101.033748,126.399846 C90.5284272,145.112654 68.0492039,159.443115 48.5307961,159.810077 C38.4579417,159.996346 30.5282718,156.189538 26.2576699,149.076731 C22.1582524,142.246115 16.2005825,139.104077 11.5887379,139.104077 Z M44.6115728,174 C31.4742913,174 18.5881553,168.428654 10.4174757,161.813308 C4.2007767,156.781808 0.720776699,151.264 0.870563107,146.678654 C1.04963107,141.173115 3.84939806,137.325038 8.55133981,136.126 C14.5292816,134.604615 23.5243495,137.974192 29.163301,147.365731 C33.8055534,155.099808 42.2161165,156.587731 48.4666019,156.465038 C67.0153398,156.115923 88.4404272,142.3175 98.304932,124.369846 C98.4580971,124.089885 98.6900971,123.859 98.9716505,123.705077 L113.236272,115.897385 C113.827534,115.572808 114.556194,115.629692 115.091146,116.040154 C115.624971,116.452846 115.859223,117.137692 115.688039,117.785731 C109.043379,142.945462 83.2587184,166.125385 54.3780971,172.900231 C51.1537476,173.656462 47.8742136,174 44.6115728,174 L44.6115728,174 Z" id="Fill-15" fill="#0A0B09" mask="url(#mask-2)"></path>
                </g>
                <path d="M33.431,80 C33.284,80.111 33.145,80.232 33,80.344 C33.217,80.263 33.434,80.184 33.653,80.106 C33.579,80.07 33.506,80.039 33.431,80" id="Fill-17" fill="#5798AD"></path>
                <path d="M50,77.0176071 C49.7503467,77.0143058 49.5062413,77 49.2565881,77 C43.9040222,77 38.7700416,77.9232731 34,79.608054 C40.0837725,82.604565 45.3797503,80.3079368 50,77.0176071" id="Fill-18" fill="#5798AD"></path>
                <g id="Group-22" transform="translate(0.000000, 137.000000)">
                    <path d="M20.893,6.59384091 C13.4481333,-2.19497727 1.8904,1.6415 1.70226667,12.6330909 C1.547,21.6635682 12.7296,40.9706818 22.7720667,45.815 C31.4896667,50.0212045 31.8602667,39.8392273 31.1519333,36.2499773 C29.8962,29.8866591 24.8562667,11.2744545 20.893,6.59384091" id="Fill-19" fill="#F9CE22"></path>
                    <path d="M11.4806667,3.41329545 C10.6193333,3.41329545 9.76593333,3.5525 8.94313333,3.83759091 C5.54766667,5.01247727 3.47593333,8.31106818 3.40226667,12.6609318 C3.25833333,21.0588636 14.2188,39.8269773 23.5212,44.3149318 C25.5022667,45.2715455 26.9778667,45.4018409 27.9049333,44.7058182 C29.6899333,43.3638864 29.971,39.0418636 29.4825333,36.5684773 C28.1576667,29.85325 23.1925333,11.9203636 19.5862667,7.66293182 C17.2595333,4.91559091 14.3185333,3.41329545 11.4806667,3.41329545 Z M26.469,48.4799318 C25.2529333,48.4799318 23.7818667,48.1625455 22.0229333,47.3150682 C11.4081333,42.1934545 -0.1632,22.2549091 0.00226666667,12.60525 C0.0997333333,6.88672727 3.09286667,2.31970455 7.8132,0.684886364 C12.7228,-1.00784091 18.2330667,0.843022727 22.1997333,5.52475 C26.7172,10.8590682 31.8478,30.9991818 32.8213333,35.9325909 C33.235,38.0295682 33.6010667,44.6300909 29.971,47.3596136 C29.1810667,47.9520682 28.0375333,48.4799318 26.469,48.4799318 L26.469,48.4799318 Z" id="Fill-21" fill="#0A0B09"></path>
                </g>
                <path d="M143,75.5251425 C134.317784,51.2306108 116.199165,34.7830806 91.2860642,34.0362811 C66.3729632,33.2894815 45.6124231,44.1281663 34.66538,61.3213747 C27.2820427,72.9158295 32.7787788,79.2613826 36.1760198,80.7572243 C39.5732609,82.2530659 53.9164126,76.646463 58.0689736,69.1706187 C67.883603,75.1506214 78.8295137,72.5334592 88.2670493,69.5440185" id="Fill-23" fill="#F9CE22"></path>
                <g id="Group-28" transform="translate(29.000000, 32.000000)">
                    <path d="M8.57212403,50.169587 C7.70970543,50.169587 6.97404651,50.0531739 6.40928682,49.8070435 C4.39924031,48.9322826 1.86291473,46.7415 0.770744186,43.2191739 C-0.164108527,40.2079565 -0.335007752,35.1556304 4.15251163,28.1841522 C15.8087442,10.0725 37.511814,-0.318195652 62.2288217,0.430173913 C86.6504341,1.15415217 106.053721,16.509587 115.463364,42.5595 C115.775736,43.4253913 115.312837,44.3755435 114.428915,44.6826522 C113.546124,44.9875435 112.575054,44.5351957 112.262682,43.6693043 C103.345364,18.983087 85.0715969,4.4358913 62.1269612,3.75515217 C38.6322791,3.06221739 18.0338295,12.8542174 7.02497674,29.9569565 C4.01443411,34.6345435 2.97545736,38.8863913 4.01896124,42.2523913 C4.77951938,44.7048261 6.52472868,46.217087 7.78779845,46.7681087 C9.93365891,47.7105 23.5376899,43.0728261 27.4921395,36.0292826 C27.7151008,35.6312609 28.0965116,35.3396739 28.5458295,35.2232609 C28.9962791,35.1079565 29.4727597,35.1766957 29.8688837,35.4150652 C39.154031,41.0117609 49.5902016,38.4528913 58.6433333,35.6168478 C59.5397054,35.3396739 60.4915349,35.8186304 60.777876,36.6945 C61.0630853,37.5692609 60.5707597,38.505 59.6777829,38.7843913 C49.692062,41.9142391 39.1653488,44.0662174 29.5406667,39.0615652 C24.9082791,45.3645 14.1122016,50.169587 8.57212403,50.169587" id="Fill-24" fill="#0A0B09"></path>
                    <path d="M91.6042481,12.4406739 C84.826,11.9018478 90.0955814,16.8765652 92.3591473,18.7236522 C94.6227132,20.5707391 110.844558,34.9837826 125.935752,30.549 C141.025814,26.1142174 145.554078,13.9196739 142.534481,13.1801739 C139.517147,12.4406739 105.563659,13.5493696 91.6042481,12.4406739" id="Fill-26" fill="#E8802C"></path>
                    <path d="M90.1838605,14.0793261 C90.6263876,14.7888913 91.7106357,16.0295217 93.4456589,17.4453261 L93.8836589,17.8089783 C105.54555,27.5499783 116.751333,31.5080217 125.447953,28.9558043 C133.733736,26.52 138.823364,21.4909565 140.822093,17.595 C141.570202,16.1381739 141.719597,15.1824783 141.719597,14.7334565 C139.652961,14.5216957 132.03493,14.5593913 124.648915,14.5948696 C113.352589,14.6503043 99.2924496,14.7190435 91.4673023,14.0981739 C90.8765116,14.0505 90.4622791,14.0571522 90.1838605,14.0793261 Z M119.867132,33.0646304 C111.358388,33.0657391 101.750682,28.7506957 91.6800775,20.3401304 L91.2726357,20.0008696 C85.6114574,15.3809348 86.4817984,13.2943696 86.7681395,12.608087 C87.6633798,10.4583261 90.7327752,10.7022391 91.7411938,10.7820652 C99.4203411,11.3918478 113.400124,11.3208913 124.63307,11.2687826 C135.649845,11.2122391 141.467209,11.2033696 142.94645,11.565913 C144.264977,11.8896522 145.076465,13.0316087 145.113814,14.622587 C145.208884,18.6560217 139.667674,28.2484565 126.42355,32.141087 C124.324093,32.7586304 122.135225,33.0646304 119.867132,33.0646304 L119.867132,33.0646304 Z" id="Fill-27" fill="#0A0B09"></path>
                </g>
                <path d="M55.6077577,59.15591 C52.9601302,61.0621585 53.7583038,63.4191297 56.7178741,63.773954 C59.6785544,64.1287784 59.9094586,64.3163132 62.6392347,62.3525256 C65.598805,60.2214485 65.9695838,56.668943 62.6392347,57.0248329 C59.3088857,57.3807228 57.0886529,58.0903715 55.6077577,59.15591" id="Fill-29" fill="#0A0B09"></path>
                <path d="M48,61.5 C48,63.4331667 46.4331667,65 44.5,65 C42.568,65 41,63.4331667 41,61.5 C41,59.5656667 42.568,58 44.5,58 C46.4331667,58 48,59.5656667 48,61.5" id="Fill-30" fill="#0A0B09"></path>
                <path d="M87,52.5 C87,54.4331667 85.4331667,56 83.5,56 C81.5668333,56 80,54.4331667 80,52.5 C80,50.5656667 81.5668333,49 83.5,49 C85.4331667,49 87,50.5656667 87,52.5" id="Fill-31" fill="#0A0B09"></path>
                <path d="M46.9842286,47.7717197 C46.9842286,47.7717197 54.5201937,44.4403938 61.5689147,48 C61.5689147,48 91.5766165,32.4086786 110.979729,38.7870991 C110.979729,38.7870991 112.062243,32.9681892 98.405909,18.9804251 C98.405909,18.9804251 64.6881763,10.6269324 46.9842286,28.2324918 C46.9842286,28.2324918 40.2697142,50.4707986 46.9842286,47.7717197" id="Fill-32" fill="#387BB2"></path>
                <path d="M49.1963706,29.6601399 C46.8227001,37.508378 45.6971942,45.2824193 46.7307062,46.6711156 C46.7920355,46.6600415 46.8897081,46.6367858 47.0305383,46.5825226 C47.6722243,46.3100989 55.0589958,43.3278349 62.3821665,46.4883924 C67.1226929,44.1805431 91.8577015,32.800764 110.197429,36.9325231 C109.350176,34.3732909 106.739139,29.2592563 98.7140882,21.1297353 C94.6629483,20.2570936 65.138577,14.5517003 49.1963706,29.6601399 Z M46.6534768,50 C45.6006574,50 44.8862848,49.5448531 44.4944588,49.1960179 C41.0407116,46.1273757 44.4365367,33.5604496 46.0560841,28.299129 C46.1378565,28.0355646 46.2843653,27.7963633 46.4831176,27.602566 C54.1106633,20.1651783 65.8120634,16.1541273 80.3209819,16.0046265 C91.1433289,15.8905629 99.6431133,17.9226663 99.9997317,18.0090446 C100.307514,18.0843487 100.588039,18.2416014 100.810641,18.4641915 C114.801668,32.5161588 114.081617,38.8483481 113.953279,39.5238702 C113.864693,39.9967357 113.569404,40.407586 113.145777,40.6512169 C112.722151,40.8959553 112.209938,40.9491111 111.744289,40.7996103 C93.0786085,34.780819 63.4929079,49.6611315 63.1964831,49.8117397 C62.7081203,50.0586929 62.1266278,50.0631226 61.6359935,49.820599 C55.3202131,46.6932639 48.4490619,49.6024386 48.3797825,49.6323388 C48.3627466,49.6400907 48.344575,49.6478426 48.3264033,49.6544871 C47.6960746,49.903655 47.1384324,50 46.6534768,50 L46.6534768,50 Z" id="Fill-33" fill="#0A0B09"></path>
                <g id="Group-37" transform="translate(104.000000, 0.000000)">
                    <path d="M10.01475,2.40444444 C9.54225,0.925555556 4.905,2.36777778 3.783375,3.45333333 C2.66175,4.53888889 1.967625,6.28 2.383875,7.77555556 C4.435875,15.1422222 5.938875,18.7711111 4.61475,29.3866667 C3.21525,40.6122222 5.229,52.0866667 2.54025,63.0811111 C2.1915,64.5088889 2.10825,66.5044444 3.531375,66.9322222 C3.978,67.0666667 4.45725,66.9822222 4.919625,66.9177778 C7.3485,66.5766667 9.8595,66.8188889 12.178125,67.6144444 C12.767625,67.8166667 13.428,68.0533333 13.9905,67.7844444 C14.68125,67.4555556 14.832,66.5655556 14.8905,65.8088889 C15.62175,56.4266667 15.84675,47.0066667 15.564375,37.6011111 C15.391125,31.8266667 15.01875,26.0122222 13.523625,20.4266667 C12.866625,17.9711111 11.424375,15.4788889 11.550375,12.9411111 C11.6595,10.7233333 13.100625,8.60111111 13.021875,6.38222222 C12.94425,4.16333333 11.323125,1.68888889 9.084375,1.89222222" id="Fill-34" fill="#D9DAD5"></path>
                    <path d="M7.08975,65.1066667 C9.030375,65.1066667 10.93275,65.4222222 12.731625,66.04 C12.8565,66.0833333 13.01175,66.1366667 13.14675,66.1766667 C13.16925,66.0633333 13.190625,65.9044444 13.2075,65.6822222 C13.930875,56.4 14.157,46.97 13.878,37.6511111 C13.7115,32.1611111 13.35825,26.3255556 11.892375,20.8533333 C11.696625,20.1222222 11.417625,19.37 11.122875,18.5733333 C10.454625,16.7688889 9.76275,14.9022222 9.864,12.86 C9.927,11.5933333 10.312875,10.4511111 10.68525,9.34555556 C11.035125,8.30444444 11.367,7.32111111 11.336625,6.44 C11.30175,5.48777778 10.852875,4.47555556 10.218375,3.92333333 C9.74025,3.50777778 9.3645,3.54111111 9.2385,3.55222222 L9.156375,2.67222222 L8.404875,2.90555556 C8.515125,3.24888889 8.7885,3.43111111 8.8965,3.46111111 C8.155125,3.25555556 5.5125,4.11333333 4.964625,4.64333333 C4.18725,5.39555556 3.78675,6.52666667 4.010625,7.33444444 C4.208625,8.04444444 4.402125,8.72 4.58775,9.37 C6.357375,15.5733333 7.52625,19.6711111 6.28875,29.59 C5.713875,34.2077778 5.7285,38.9955556 5.74425,43.6244444 C5.765625,50.1544444 5.785875,56.9066667 4.1805,63.4722222 C3.940875,64.4566667 4.003875,65.1055556 4.087125,65.3388889 C4.206375,65.3355556 4.422375,65.3044444 4.5765,65.2822222 C5.418,65.1644444 6.25725,65.1066667 7.08975,65.1066667 Z M13.43475,69.5711111 C12.731625,69.5711111 12.097125,69.3511111 11.651625,69.1977778 C9.559125,68.48 7.318125,68.2633333 5.157,68.5677778 C4.53375,68.6566667 3.812625,68.76 3.038625,68.5255556 C0.99,67.91 0.169875,65.6733333 0.9,62.6888889 C2.40975,56.5155556 2.390625,50.2588889 2.36925,43.6344444 C2.3535,38.9022222 2.338875,34.0088889 2.94075,29.1822222 C4.093875,19.93 3.056625,16.2955556 1.33875,10.2744444 C1.150875,9.61777778 0.95625,8.93555556 0.756,8.21777778 C0.20925,6.25333333 0.950625,3.86 2.602125,2.26222222 C3.805875,1.09777778 7.5465,-0.306666667 9.712125,0.226666667 C9.714375,0.227777778 9.716625,0.227777778 9.718875,0.228888889 C10.704375,0.31 11.63475,0.714444444 12.448125,1.42222222 C13.77675,2.57666667 14.641875,4.45555556 14.709375,6.32333333 C14.761125,7.80555556 14.297625,9.18333333 13.887,10.3988889 C13.572,11.3322222 13.275,12.2133333 13.2345,13.0222222 C13.168125,14.3911111 13.71375,15.8666667 14.293125,17.4277778 C14.601375,18.2611111 14.91975,19.1222222 15.154875,20.0011111 C16.707375,25.7988889 17.07975,31.8633333 17.25075,37.5522222 C17.53425,46.9888889 17.305875,56.5388889 16.572375,65.9366667 C16.524,66.5688889 16.3755,68.4988889 14.722875,69.2866667 C14.286375,69.4944444 13.84875,69.5711111 13.43475,69.5711111 L13.43475,69.5711111 Z" id="Fill-36" fill="#0A0B09"></path>
                </g>
                <path d="M108,12 C108,12 113.185185,14.646296 116,12 L116,18.9639368 C116,18.9639368 111.555556,21.470954 108.592593,18.6853793 L108,12" id="Fill-38" fill="#969894"></path>
                <path d="M109.885708,17.2933315 C111.112037,18.0782857 112.674564,17.7068631 113.615465,17.3505565 L113.615465,14.2398917 C112.222165,14.5141398 110.787122,14.3327474 109.601407,14.0369049 L109.885708,17.2933315 Z M111.528335,21 C110.058319,21 108.455177,20.5789104 107.060749,19.2433004 C106.777576,18.9722914 106.602709,18.6138254 106.569991,18.2326853 L106.005902,11.7543831 C105.954006,11.1616185 106.247333,10.5893685 106.767423,10.2643736 C107.288641,9.93937882 107.949754,9.91238589 108.495792,10.1952718 C108.553329,10.2233444 112.394776,12.1160883 114.111864,10.4749185 C114.595852,10.0106401 115.324655,9.87243636 115.955307,10.1240104 C116.588215,10.3745048 117,10.9640303 117,11.6194185 L117,18.3676499 C117,18.9366608 116.688623,19.4646424 116.178686,19.7572457 C116.042177,19.8349853 113.968585,21 111.528335,21 L111.528335,21 Z" id="Fill-39" fill="#0A0B09"></path>
                <polyline id="Fill-40" fill="#EEA32D" points="9 90 97 94.1022244 84.10741 183.509279 46.5260409 193 14.1364855 178.885624 9 90"></polyline>
                <path d="M15.4265762,178.146458 L46.2001653,191.570086 L81.964765,182.527889 L94.3810143,96.3371127 L10.4771667,92.4230935 L15.4265762,178.146458 Z M46.0539992,195 C45.8201334,195 45.5885163,194.952146 45.3737645,194.858664 L13.1205247,180.789562 C12.541482,180.535824 12.1535796,179.98272 12.1176003,179.357278 L7.00291057,90.7637808 C6.9748017,90.2908044 7.15132539,89.8300697 7.48750746,89.4939782 C7.82368952,89.1578867 8.28692367,88.9853894 8.76589879,89.0009698 L96.3924849,93.0885992 C96.8658383,93.1108569 97.3099584,93.3300954 97.6124098,93.6917832 C97.9148612,94.054584 98.0497838,94.5264476 97.9834469,94.9916338 L85.1444402,184.104848 C85.04887,184.773693 84.5541539,185.319007 83.891909,185.487053 L46.4711348,194.947694 C46.3339635,194.982194 46.1934191,195 46.0539992,195 L46.0539992,195 Z" id="Fill-41" fill="#0A0B09"></path>
                <polyline id="Fill-42" fill="#F2BB2A" points="48.3222533 94 46 191 82.1603119 181.079293 95 95.2136681 48.3222533 94"></polyline>
                <polyline id="Fill-43" fill="#EEA32D" points="96.9709428 94 106 88.3437614 18.711965 85 9 89.990542 96.9709428 94"></polyline>
                <path d="M14.9054644,89.5850504 L95.8567455,93.5075518 L99.9350628,90.7919739 L18.7498997,87.4833388 L14.9054644,89.5850504 Z M96.3188873,97 C96.2930254,97 96.266039,97 96.2401771,96.9988439 L8.60639263,92.7526466 C7.84740058,92.7144967 7.20647396,92.1619014 7.04118236,91.4000599 C6.87476633,90.6370623 7.22334045,89.8555677 7.89462676,89.4879416 L17.5692454,84.2012929 C17.8334871,84.0579419 18.1280885,83.9966708 18.428312,84.000139 L105.38069,87.5422977 C106.114945,87.5723552 106.745751,88.0879566 106.940278,88.8174285 C107.133681,89.5457445 106.84695,90.3203026 106.230761,90.7307029 L97.2364244,96.7213903 C96.9620628,96.9040473 96.6438484,97 96.3188873,97 L96.3188873,97 Z" id="Fill-44" fill="#0A0B09"></path>
                <polyline id="Fill-45" fill="#F2BB2A" points="84 184 96.936911 94.7753029 106 89 91.7431117 176.974477 84 184"></polyline>
                <path d="M97.9553519,95.4055533 L85.9926211,178.937243 L89.734111,175.50057 L103.084148,92.0976864 L97.9553519,95.4055533 Z M83.673009,185 C83.4075918,185 83.1410594,184.936707 82.8946006,184.809012 C82.2689745,184.481446 81.9165718,183.796332 82.0169397,183.099004 L94.7502723,94.1841187 C94.8182994,93.7077592 95.091523,93.2835883 95.4974551,93.0226455 L104.417925,87.2674679 C104.971064,86.9099207 105.68479,86.911031 106.240159,87.2696887 C106.793297,87.6283463 107.082134,88.2779274 106.979535,88.9286189 L92.9469969,176.59542 C92.8878914,176.964071 92.7049989,177.303852 92.4295449,177.557022 L84.8071655,184.558063 C84.4915644,184.848986 84.0845171,185 83.673009,185 L83.673009,185 Z" id="Fill-46" fill="#0A0B09"></path>
                <polyline id="Fill-47" fill="#FAD443" points="47.9646427 100 89 101.28288 77.1161444 179.006345 46 186 47.9646427 100"></polyline>
                <polyline id="Fill-48" fill="#F2BB2A" points="49 99.9933788 46.9833519 186 19.7769353 175.249873 15 98 49 99.9933788"></polyline>
                <path d="M24.9146258,146.352096 C26.3492662,149.019954 28.2712072,150.307274 30.2056431,150.328359 C33.3134627,150.361652 34.9741469,148.752503 35.0343496,143.505567 L35.3240038,118 L44,118.09322 L43.7012586,144.323459 C43.6149303,151.920862 39.7335635,158.090006 31.2915625,157.999006 C25.4280522,157.93464 21.585306,155.542002 19,150.750067 L24.9146258,146.352096" id="Fill-49" fill="#0A0B09"></path>
                <path d="M54.9414629,146.068973 C57.5532837,148.524143 60.9738692,150.261407 64.071171,150.296018 C67.5695223,150.335095 69.3059221,148.899284 69.3325847,146.533434 C69.3603582,144.045886 67.2473496,143.233079 63.9934052,141.741443 L59.2008083,139.502874 C55.3191826,137.822551 51.6886294,134.384867 51.751953,128.621526 C51.8241641,122.068825 57.4421897,116.91509 65.1843332,117.00106 C69.4847835,117.049069 73.9952015,118.919196 77.1680472,122.351298 L72.8631532,127.946048 C70.4201953,125.917379 68.0827767,124.738361 65.0999018,124.704866 C62.2325646,124.673605 60.32508,125.985485 60.3006393,128.230753 C60.2739767,130.656894 62.7302659,131.534458 65.9842103,132.965803 L70.7212602,135.082675 C75.2283453,137.073383 78.0601324,140.319031 77.9990306,145.900382 C77.9268195,152.451967 72.7020669,158.098076 63.8145437,157.998708 C58.9397373,157.944 53.8005271,155.945476 50,152.141582 L54.9414629,146.068973" id="Fill-50" fill="#0A0B09"></path>
                <path d="M130.952199,147.725697 C116.102584,135.852178 96.9717971,143.944379 90.2272701,158.311359 C83.4827431,172.679466 76.8648581,188.635141 87.882712,187.980509 C98.900566,187.327003 133.473832,184.205951 143,152.708113" id="Fill-51" fill="#F9CE22"></path>
                <path d="M86.9984518,190 C84.3581701,190 82.4206808,189.120087 81.2312526,187.382623 C77.9357102,182.566024 81.5605805,172.624242 88.4775981,158.145375 C92.3548399,150.029383 100.213441,143.731356 108.987596,141.711023 C117.177789,139.824857 125.416645,141.721085 132.19333,147.045283 C132.926679,147.621084 133.047772,148.676532 132.464941,149.401034 C131.88211,150.125536 130.814906,150.247405 130.079294,149.669368 C124.131021,144.996999 116.911837,143.327736 109.75716,144.977992 C101.970988,146.770241 94.9928582,152.365009 91.54793,159.578727 C88.4413833,166.078005 81.1690085,181.301499 84.0435544,185.503166 C84.2597112,185.819577 84.9240255,186.777753 87.5439365,186.629051 C116.674177,184.93072 135.392677,173.236938 141.677068,152.813351 C141.950942,151.927848 142.899316,151.428075 143.795631,151.69641 C144.691946,151.965862 145.198953,152.902796 144.92621,153.789416 C138.190267,175.675425 118.418144,188.188744 87.7442493,189.976521 C87.4907461,189.992174 87.2417697,190 86.9984518,190" id="Fill-52" fill="#0A0B09"></path>
                <path d="M91.1321966,181.990235 C91.1321966,181.990235 88.8371128,195 76.2141522,195 C63.5911915,195 68.9467694,180.131219 67.4170961,170.465898 C65.8862752,160.800577 59.7664344,148.162169 68.9467694,142.21488 C78.1271045,136.26759 89.2203918,153.738101 91.1321966,160.42922 C93.8105593,169.350712 93.4272804,174.927759 91.1321966,181.990235" id="Fill-53" fill="#F9CE22"></path>
                <path d="M72.5114765,142.321921 C71.4567972,142.321921 70.4666208,142.628995 69.5183148,143.248686 C63.4437242,147.21515 65.3041242,154.826593 67.272029,162.88479 C67.8276594,165.159576 68.4025275,167.511962 68.746543,169.694737 C69.1890104,172.513831 69.0803739,175.694319 68.9762639,178.768384 C68.8087827,183.698196 68.6356433,188.795402 70.9204045,191.110097 C71.9603726,192.16213 73.537865,192.674289 75.7434121,192.674289 C86.5799023,192.674289 88.6971823,181.591913 88.7831862,181.119662 L88.8352411,180.903491 C90.8868866,174.541406 91.4934403,169.395423 88.8250565,160.437067 C87.4207035,155.483976 81.0235983,145.030158 74.7634204,142.750938 C73.9792008,142.464927 73.2300616,142.321921 72.5114765,142.321921 Z M75.7434121,196 C72.6133232,196 70.1701337,195.133098 68.4806099,193.422574 C65.194356,190.094646 65.3923913,184.280196 65.5836368,178.657527 C65.6820886,175.735336 65.785067,172.713374 65.3912597,170.201354 C65.0687451,168.152716 64.5357473,165.969941 63.9710639,163.658572 C61.9182868,155.256719 59.5916552,145.7341 67.6352822,140.481695 C70.1271318,138.854314 73.0003407,138.561651 75.9471056,139.63253 C83.6376639,142.434995 90.5440027,154.073874 92.0898094,159.526931 C94.9652816,169.180361 94.2806454,175.021417 92.1067839,181.799215 C91.1912951,186.780021 86.6376154,196 75.7434121,196 L75.7434121,196 Z" id="Fill-54" fill="#0A0B09"></path>
                <path d="M34.1187246,82.3610263 C31.5949934,78.7856636 19.187209,78.9624976 16.6017866,85.0323251 C16.0880671,86.2392173 15.9198183,87.3632185 16.0342275,88.3811193 C16.4941074,92.4825632 21.5404482,94.8333503 27.0074109,93.7270325 C33.8304584,92.3444116 36.5650614,85.826973 34.1187246,82.3610263" id="Fill-55" fill="#F9CE22"></path>
                <path d="M27.1034969,81.2525063 C26.5566537,81.2525063 25.9890442,81.2796431 25.4064369,81.3371731 C22.5037835,81.6259084 19.0185228,82.7906191 17.9456025,85.1981944 C17.5510446,86.081768 17.3964518,86.9164954 17.485285,87.6774108 C17.6433389,89.0201387 18.5478223,89.898285 19.2781003,90.3986873 C21.0974502,91.6426373 23.8731991,92.0605438 26.7043244,91.5112953 C29.7165772,90.9294827 32.1104586,89.1764466 33.1106973,86.8220594 C33.7406054,85.3403911 33.6783068,83.8641502 32.9457214,82.8731149 C32.3088912,82.0112507 30.0130724,81.2525063 27.1034969,81.2525063 Z M24.3115966,95 C21.6350641,95 19.1223538,94.318324 17.241859,93.0309551 C15.412126,91.7783213 14.276907,90.0046612 14.0461714,88.0345308 C13.8904249,86.7167687 14.1292362,85.3382202 14.7545296,83.9379622 C16.1620166,80.7814118 20.0083784,78.598529 25.0430284,78.0992122 C29.0243705,77.7041007 33.8928909,78.4519904 35.7872298,81.0137026 C37.186641,82.9056791 37.387381,85.5292631 36.3248437,88.0301889 C34.8919759,91.4038337 31.5555396,93.8982467 27.4011458,94.7014954 C26.3651431,94.9012221 25.3256794,95 24.3115966,95 L24.3115966,95 Z" id="Fill-56" fill="#0A0B09"></path>
                <path d="M108.648762,76.7683709 C94.2992425,71.1643455 76.1728772,74.5256399 66.7341624,82.7456245 C57.2931819,90.965609 63.7140455,96.9439834 70.8871062,97.6904395 C78.0624326,98.4368957 92.0324556,92.0864141 102.984627,94.3280243 C113.934533,96.5696345 117.293365,100.539526 129,111" id="Fill-57" fill="#F9CE22"></path>
                <path d="M128.310795,113 C127.905304,113 127.500939,112.857638 127.177673,112.569577 C125.907135,111.43513 124.734591,110.378537 123.639766,109.393125 C114.695316,101.327429 111.347764,98.3100217 102.101448,96.4203886 C96.073152,95.1914042 88.8858281,96.7651716 82.5421503,98.1554254 C77.7337056,99.2086818 73.5819307,100.117352 70.3526472,99.7825786 C65.3898907,99.2676285 61.458883,96.6884296 60.3370252,93.2127949 C59.5463182,90.7637237 59.7637063,86.8376469 65.2840126,82.0418272 C75.5958681,73.0808069 94.6651979,70.3425629 108.696305,75.8112655 C109.563605,76.148263 109.98937,77.1181041 109.646956,77.9745005 C109.304541,78.8320091 108.321226,79.253534 107.455053,78.9143121 C94.5030016,73.8671345 76.959894,76.339562 67.5164646,84.5465085 C64.2781702,87.3592701 62.8713425,90.0774944 63.5561714,92.1995779 C64.2601484,94.379496 67.1335011,96.0945131 70.7063253,96.4648768 C73.3870698,96.7407031 77.4780211,95.8464918 81.8100142,94.8977826 C88.4859692,93.4352356 96.0506247,91.7747163 102.785151,93.1538482 C112.940442,95.2281069 117.007739,98.8950405 125.918399,106.928483 C127.007592,107.911671 128.175631,108.963815 129.44279,110.092701 C130.135503,110.711086 130.189568,111.765455 129.564437,112.449459 C129.231033,112.814262 128.771477,113 128.310795,113" id="Fill-58" fill="#0A0B09"></path>
            </g>
        </g>
    </g>
</svg>